<mxfile host="app.diagrams.net" modified="2023-12-04T19:03:20.007Z" agent="Mozilla/5.0 (Windows NT 10.0; Win64; x64; rv:120.0) Gecko/20100101 Firefox/120.0" etag="FQYM_ARItGivGgpim-3F" version="22.1.5" type="device">
  <diagram name="Page-1" id="LztbPj5Mm1v6jzAGDRRV">
    <mxGraphModel dx="2603" dy="1581" grid="1" gridSize="10" guides="1" tooltips="1" connect="1" arrows="1" fold="1" page="1" pageScale="1" pageWidth="1169" pageHeight="827" background="#ffffff" math="0" shadow="0">
      <root>
        <mxCell id="0" />
        <mxCell id="1" parent="0" />
        <mxCell id="YrKr4Qs9mhoKFXOp8PhC-1" value="&lt;b&gt;Szemely&lt;/b&gt;" style="ellipse;whiteSpace=wrap;html=1;" parent="1" vertex="1">
          <mxGeometry x="500" y="120" width="80" height="40" as="geometry" />
        </mxCell>
        <mxCell id="YrKr4Qs9mhoKFXOp8PhC-3" value="Teljes nev" style="ellipse;whiteSpace=wrap;html=1;" parent="1" vertex="1">
          <mxGeometry x="500" y="40" width="80" height="40" as="geometry" />
        </mxCell>
        <mxCell id="YrKr4Qs9mhoKFXOp8PhC-6" value="Vezetek nev" style="ellipse;whiteSpace=wrap;html=1;" parent="1" vertex="1">
          <mxGeometry x="560" y="-40" width="80" height="40" as="geometry" />
        </mxCell>
        <mxCell id="YrKr4Qs9mhoKFXOp8PhC-7" value="Kereszt nev" style="ellipse;whiteSpace=wrap;html=1;" parent="1" vertex="1">
          <mxGeometry x="440" y="-40" width="80" height="40" as="geometry" />
        </mxCell>
        <mxCell id="YrKr4Qs9mhoKFXOp8PhC-10" value="" style="rounded=0;whiteSpace=wrap;html=1;" parent="1" vertex="1">
          <mxGeometry x="460" y="-120" width="40" height="40" as="geometry" />
        </mxCell>
        <mxCell id="YrKr4Qs9mhoKFXOp8PhC-11" value="" style="rounded=0;whiteSpace=wrap;html=1;" parent="1" vertex="1">
          <mxGeometry x="580" y="-120" width="40" height="40" as="geometry" />
        </mxCell>
        <mxCell id="YrKr4Qs9mhoKFXOp8PhC-14" value="Szuletesi datum" style="ellipse;whiteSpace=wrap;html=1;" parent="1" vertex="1">
          <mxGeometry x="320" y="40" width="80" height="40" as="geometry" />
        </mxCell>
        <mxCell id="YrKr4Qs9mhoKFXOp8PhC-16" value="" style="rounded=0;whiteSpace=wrap;html=1;" parent="1" vertex="1">
          <mxGeometry x="340" y="-40" width="40" height="40" as="geometry" />
        </mxCell>
        <mxCell id="YrKr4Qs9mhoKFXOp8PhC-22" value="&lt;div&gt;&lt;b&gt;&lt;u&gt;szemely&lt;/u&gt;&lt;/b&gt;&lt;/div&gt;&lt;div&gt;&lt;b&gt;&lt;u&gt;id&lt;br&gt;&lt;/u&gt;&lt;/b&gt;&lt;/div&gt;" style="rhombus;whiteSpace=wrap;html=1;" parent="1" vertex="1">
          <mxGeometry x="480" y="200" width="120" height="40" as="geometry" />
        </mxCell>
        <mxCell id="xxGwxqvofC45Gv9JoIxF-1" value="&lt;div&gt;szemely&lt;/div&gt;&lt;div&gt;ref&lt;br&gt;&lt;/div&gt;" style="rhombus;whiteSpace=wrap;html=1;" parent="1" vertex="1">
          <mxGeometry x="120" y="280" width="120" height="40" as="geometry" />
        </mxCell>
        <mxCell id="xxGwxqvofC45Gv9JoIxF-3" value="&lt;font style=&quot;font-size: 12px;&quot;&gt;&lt;b&gt;&lt;font&gt;Okirat&lt;/font&gt;&lt;/b&gt;&lt;/font&gt;" style="ellipse;whiteSpace=wrap;html=1;" parent="1" vertex="1">
          <mxGeometry x="140" y="120" width="80" height="40" as="geometry" />
        </mxCell>
        <mxCell id="xxGwxqvofC45Gv9JoIxF-6" value="Kiallitva" style="ellipse;whiteSpace=wrap;html=1;" parent="1" vertex="1">
          <mxGeometry x="200" y="40" width="80" height="40" as="geometry" />
        </mxCell>
        <mxCell id="xxGwxqvofC45Gv9JoIxF-7" value="&lt;div&gt;&lt;b&gt;&lt;u&gt;okirat&lt;/u&gt;&lt;/b&gt;&lt;/div&gt;&lt;div&gt;&lt;b&gt;&lt;u&gt;id&lt;/u&gt;&lt;/b&gt;&lt;/div&gt;" style="rhombus;whiteSpace=wrap;html=1;" parent="1" vertex="1">
          <mxGeometry x="240" y="200" width="120" height="40" as="geometry" />
        </mxCell>
        <mxCell id="xxGwxqvofC45Gv9JoIxF-10" value="Lejarat" style="ellipse;whiteSpace=wrap;html=1;" parent="1" vertex="1">
          <mxGeometry x="-40" y="40" width="80" height="40" as="geometry" />
        </mxCell>
        <mxCell id="xxGwxqvofC45Gv9JoIxF-16" value="" style="rounded=0;whiteSpace=wrap;html=1;" parent="1" vertex="1">
          <mxGeometry x="-20" y="-40" width="40" height="40" as="geometry" />
        </mxCell>
        <mxCell id="xxGwxqvofC45Gv9JoIxF-17" value="" style="rounded=0;whiteSpace=wrap;html=1;" parent="1" vertex="1">
          <mxGeometry x="220" y="-40" width="40" height="40" as="geometry" />
        </mxCell>
        <mxCell id="xxGwxqvofC45Gv9JoIxF-20" value="&lt;b&gt;Szamla&lt;/b&gt;" style="ellipse;whiteSpace=wrap;html=1;" parent="1" vertex="1">
          <mxGeometry x="740" y="120" width="80" height="40" as="geometry" />
        </mxCell>
        <mxCell id="xxGwxqvofC45Gv9JoIxF-21" value="&lt;b&gt;&lt;font style=&quot;font-size: 12px;&quot;&gt;Elerhetoseg&lt;/font&gt;&lt;/b&gt;" style="ellipse;whiteSpace=wrap;html=1;" parent="1" vertex="1">
          <mxGeometry x="-280" y="120" width="80" height="40" as="geometry" />
        </mxCell>
        <mxCell id="xxGwxqvofC45Gv9JoIxF-22" value="&lt;div&gt;&lt;b&gt;&lt;u&gt;elerhetoseg&lt;/u&gt;&lt;/b&gt;&lt;/div&gt;&lt;div&gt;&lt;b&gt;&lt;u&gt;id&lt;/u&gt;&lt;br&gt;&lt;/b&gt;&lt;/div&gt;" style="rhombus;whiteSpace=wrap;html=1;" parent="1" vertex="1">
          <mxGeometry x="-200" y="200" width="120" height="40" as="geometry" />
        </mxCell>
        <mxCell id="xxGwxqvofC45Gv9JoIxF-23" value="Letrehozva" style="ellipse;whiteSpace=wrap;html=1;" parent="1" vertex="1">
          <mxGeometry x="-400" y="40" width="80" height="40" as="geometry" />
        </mxCell>
        <mxCell id="xxGwxqvofC45Gv9JoIxF-26" value="" style="rounded=0;whiteSpace=wrap;html=1;" parent="1" vertex="1">
          <mxGeometry x="-380" y="-40" width="40" height="40" as="geometry" />
        </mxCell>
        <mxCell id="xxGwxqvofC45Gv9JoIxF-28" value="&lt;div&gt;szemely&lt;br&gt;&lt;/div&gt;&lt;div&gt;ref&lt;br&gt;&lt;/div&gt;" style="rhombus;whiteSpace=wrap;html=1;" parent="1" vertex="1">
          <mxGeometry x="-300" y="360" width="120" height="40" as="geometry" />
        </mxCell>
        <mxCell id="xxGwxqvofC45Gv9JoIxF-31" value="Tipus" style="ellipse;whiteSpace=wrap;html=1;" parent="1" vertex="1">
          <mxGeometry x="80" y="40" width="80" height="40" as="geometry" />
        </mxCell>
        <mxCell id="xxGwxqvofC45Gv9JoIxF-33" value="" style="rounded=0;whiteSpace=wrap;html=1;" parent="1" vertex="1">
          <mxGeometry x="100" y="-40" width="40" height="40" as="geometry" />
        </mxCell>
        <mxCell id="xxGwxqvofC45Gv9JoIxF-35" value="Tipus" style="ellipse;whiteSpace=wrap;html=1;" parent="1" vertex="1">
          <mxGeometry x="-280" y="40" width="80" height="40" as="geometry" />
        </mxCell>
        <mxCell id="xxGwxqvofC45Gv9JoIxF-36" value="" style="rounded=0;whiteSpace=wrap;html=1;" parent="1" vertex="1">
          <mxGeometry x="-260" y="-40" width="40" height="40" as="geometry" />
        </mxCell>
        <mxCell id="xxGwxqvofC45Gv9JoIxF-41" value="" style="rounded=0;whiteSpace=wrap;html=1;" parent="1" vertex="1">
          <mxGeometry x="-140" y="-40" width="40" height="40" as="geometry" />
        </mxCell>
        <mxCell id="xxGwxqvofC45Gv9JoIxF-43" value="&lt;div&gt;tulajdonos&lt;br&gt;&lt;/div&gt;&lt;div&gt;ref&lt;br&gt;&lt;/div&gt;" style="rhombus;whiteSpace=wrap;html=1;" parent="1" vertex="1">
          <mxGeometry x="610" y="280" width="120" height="40" as="geometry" />
        </mxCell>
        <mxCell id="xxGwxqvofC45Gv9JoIxF-46" value="&lt;div&gt;&lt;b&gt;&lt;u&gt;szamla&lt;/u&gt;&lt;/b&gt;&lt;/div&gt;&lt;div&gt;&lt;b&gt;&lt;u&gt;id&lt;br&gt;&lt;/u&gt;&lt;/b&gt;&lt;/div&gt;" style="rhombus;whiteSpace=wrap;html=1;" parent="1" vertex="1">
          <mxGeometry x="720" y="200" width="120" height="40" as="geometry" />
        </mxCell>
        <mxCell id="xxGwxqvofC45Gv9JoIxF-48" value="Letrehozva" style="ellipse;whiteSpace=wrap;html=1;" parent="1" vertex="1">
          <mxGeometry x="680" y="40" width="80" height="40" as="geometry" />
        </mxCell>
        <mxCell id="xxGwxqvofC45Gv9JoIxF-49" value="Egyenleg" style="ellipse;whiteSpace=wrap;html=1;" parent="1" vertex="1">
          <mxGeometry x="800" y="40" width="80" height="40" as="geometry" />
        </mxCell>
        <mxCell id="xxGwxqvofC45Gv9JoIxF-52" value="" style="rounded=0;whiteSpace=wrap;html=1;" parent="1" vertex="1">
          <mxGeometry x="820" y="-40" width="40" height="40" as="geometry" />
        </mxCell>
        <mxCell id="xxGwxqvofC45Gv9JoIxF-53" value="" style="rounded=0;whiteSpace=wrap;html=1;" parent="1" vertex="1">
          <mxGeometry x="700" y="-40" width="40" height="40" as="geometry" />
        </mxCell>
        <mxCell id="xxGwxqvofC45Gv9JoIxF-58" value="&lt;b&gt;Tranzakcio&lt;/b&gt;" style="ellipse;whiteSpace=wrap;html=1;" parent="1" vertex="1">
          <mxGeometry x="980" y="120" width="80" height="40" as="geometry" />
        </mxCell>
        <mxCell id="xxGwxqvofC45Gv9JoIxF-59" value="&lt;div&gt;kinek&lt;br&gt;&lt;/div&gt;&lt;div&gt;ref&lt;br&gt;&lt;/div&gt;" style="rhombus;whiteSpace=wrap;html=1;" parent="1" vertex="1">
          <mxGeometry x="620" y="520" width="120" height="40" as="geometry" />
        </mxCell>
        <mxCell id="xxGwxqvofC45Gv9JoIxF-60" value="&lt;div&gt;kitol&lt;br&gt;&lt;/div&gt;&lt;div&gt;ref&lt;br&gt;&lt;/div&gt;" style="rhombus;whiteSpace=wrap;html=1;" parent="1" vertex="1">
          <mxGeometry x="620" y="440" width="120" height="40" as="geometry" />
        </mxCell>
        <mxCell id="xxGwxqvofC45Gv9JoIxF-63" value="&lt;div&gt;honnan&lt;/div&gt;&lt;div&gt;ref&lt;br&gt;&lt;/div&gt;" style="rhombus;whiteSpace=wrap;html=1;" parent="1" vertex="1">
          <mxGeometry x="820" y="280" width="120" height="40" as="geometry" />
        </mxCell>
        <mxCell id="xxGwxqvofC45Gv9JoIxF-64" value="&lt;div&gt;hova&lt;br&gt;&lt;/div&gt;&lt;div&gt;ref&lt;br&gt;&lt;/div&gt;" style="rhombus;whiteSpace=wrap;html=1;" parent="1" vertex="1">
          <mxGeometry x="840" y="360" width="120" height="40" as="geometry" />
        </mxCell>
        <mxCell id="xxGwxqvofC45Gv9JoIxF-73" value="&lt;div&gt;&lt;b&gt;&lt;u&gt;tranzakcio&lt;/u&gt;&lt;/b&gt;&lt;/div&gt;&lt;div&gt;&lt;b&gt;&lt;u&gt;id&lt;/u&gt;&lt;br&gt;&lt;/b&gt;&lt;/div&gt;" style="rhombus;whiteSpace=wrap;html=1;" parent="1" vertex="1">
          <mxGeometry x="1080" y="200" width="120" height="40" as="geometry" />
        </mxCell>
        <mxCell id="xxGwxqvofC45Gv9JoIxF-75" value="Datum" style="ellipse;whiteSpace=wrap;html=1;" parent="1" vertex="1">
          <mxGeometry x="920" y="40" width="80" height="40" as="geometry" />
        </mxCell>
        <mxCell id="xxGwxqvofC45Gv9JoIxF-77" value="Osszeg" style="ellipse;whiteSpace=wrap;html=1;" parent="1" vertex="1">
          <mxGeometry x="1040" y="40" width="80" height="40" as="geometry" />
        </mxCell>
        <mxCell id="xxGwxqvofC45Gv9JoIxF-79" value="" style="rounded=0;whiteSpace=wrap;html=1;" parent="1" vertex="1">
          <mxGeometry x="940" y="-40" width="40" height="40" as="geometry" />
        </mxCell>
        <mxCell id="xxGwxqvofC45Gv9JoIxF-80" value="" style="rounded=0;whiteSpace=wrap;html=1;" parent="1" vertex="1">
          <mxGeometry x="1060" y="-40" width="40" height="40" as="geometry" />
        </mxCell>
        <mxCell id="xxGwxqvofC45Gv9JoIxF-39" value="Elerhetoseg" style="ellipse;whiteSpace=wrap;html=1;" parent="1" vertex="1">
          <mxGeometry x="-160" y="40" width="80" height="40" as="geometry" />
        </mxCell>
        <mxCell id="nmP3d7nmnVvQvlREJcjV-6" value="" style="endArrow=classic;html=1;rounded=0;exitX=1;exitY=0;exitDx=0;exitDy=0;entryX=0.5;entryY=1;entryDx=0;entryDy=0;" parent="1" source="xxGwxqvofC45Gv9JoIxF-21" target="xxGwxqvofC45Gv9JoIxF-39" edge="1">
          <mxGeometry width="50" height="50" relative="1" as="geometry">
            <mxPoint x="-120" y="140" as="sourcePoint" />
            <mxPoint x="-70" y="90" as="targetPoint" />
          </mxGeometry>
        </mxCell>
        <mxCell id="nmP3d7nmnVvQvlREJcjV-7" value="" style="endArrow=classic;html=1;rounded=0;entryX=0.5;entryY=1;entryDx=0;entryDy=0;exitX=0.5;exitY=0;exitDx=0;exitDy=0;" parent="1" source="xxGwxqvofC45Gv9JoIxF-21" target="xxGwxqvofC45Gv9JoIxF-35" edge="1">
          <mxGeometry width="50" height="50" relative="1" as="geometry">
            <mxPoint x="-120" y="140" as="sourcePoint" />
            <mxPoint x="-70" y="90" as="targetPoint" />
          </mxGeometry>
        </mxCell>
        <mxCell id="nmP3d7nmnVvQvlREJcjV-8" value="" style="endArrow=classic;html=1;rounded=0;entryX=0.5;entryY=1;entryDx=0;entryDy=0;exitX=0;exitY=0;exitDx=0;exitDy=0;" parent="1" source="xxGwxqvofC45Gv9JoIxF-21" target="xxGwxqvofC45Gv9JoIxF-23" edge="1">
          <mxGeometry width="50" height="50" relative="1" as="geometry">
            <mxPoint x="-120" y="140" as="sourcePoint" />
            <mxPoint x="-70" y="90" as="targetPoint" />
          </mxGeometry>
        </mxCell>
        <mxCell id="nmP3d7nmnVvQvlREJcjV-9" value="" style="endArrow=classic;html=1;rounded=0;entryX=0.5;entryY=1;entryDx=0;entryDy=0;exitX=1;exitY=0;exitDx=0;exitDy=0;" parent="1" source="xxGwxqvofC45Gv9JoIxF-3" target="xxGwxqvofC45Gv9JoIxF-6" edge="1">
          <mxGeometry width="50" height="50" relative="1" as="geometry">
            <mxPoint x="100" y="140" as="sourcePoint" />
            <mxPoint x="150" y="90" as="targetPoint" />
          </mxGeometry>
        </mxCell>
        <mxCell id="nmP3d7nmnVvQvlREJcjV-10" value="" style="endArrow=classic;html=1;rounded=0;entryX=0.5;entryY=1;entryDx=0;entryDy=0;exitX=0;exitY=0;exitDx=0;exitDy=0;" parent="1" source="YrKr4Qs9mhoKFXOp8PhC-1" target="YrKr4Qs9mhoKFXOp8PhC-14" edge="1">
          <mxGeometry width="50" height="50" relative="1" as="geometry">
            <mxPoint x="100" y="140" as="sourcePoint" />
            <mxPoint x="150" y="90" as="targetPoint" />
          </mxGeometry>
        </mxCell>
        <mxCell id="nmP3d7nmnVvQvlREJcjV-11" value="" style="endArrow=classic;html=1;rounded=0;entryX=0.5;entryY=1;entryDx=0;entryDy=0;exitX=0;exitY=0;exitDx=0;exitDy=0;" parent="1" source="xxGwxqvofC45Gv9JoIxF-3" target="xxGwxqvofC45Gv9JoIxF-31" edge="1">
          <mxGeometry width="50" height="50" relative="1" as="geometry">
            <mxPoint x="100" y="140" as="sourcePoint" />
            <mxPoint x="150" y="90" as="targetPoint" />
          </mxGeometry>
        </mxCell>
        <mxCell id="nmP3d7nmnVvQvlREJcjV-12" value="" style="endArrow=classic;html=1;rounded=0;entryX=0.5;entryY=1;entryDx=0;entryDy=0;exitX=0;exitY=0.5;exitDx=0;exitDy=0;" parent="1" source="xxGwxqvofC45Gv9JoIxF-3" target="xxGwxqvofC45Gv9JoIxF-10" edge="1">
          <mxGeometry width="50" height="50" relative="1" as="geometry">
            <mxPoint x="100" y="140" as="sourcePoint" />
            <mxPoint x="150" y="90" as="targetPoint" />
          </mxGeometry>
        </mxCell>
        <mxCell id="nmP3d7nmnVvQvlREJcjV-13" value="" style="endArrow=classic;html=1;rounded=0;entryX=0.5;entryY=1;entryDx=0;entryDy=0;exitX=0.5;exitY=0;exitDx=0;exitDy=0;" parent="1" source="YrKr4Qs9mhoKFXOp8PhC-14" target="YrKr4Qs9mhoKFXOp8PhC-16" edge="1">
          <mxGeometry width="50" height="50" relative="1" as="geometry">
            <mxPoint x="280" y="140" as="sourcePoint" />
            <mxPoint x="330" y="90" as="targetPoint" />
          </mxGeometry>
        </mxCell>
        <mxCell id="nmP3d7nmnVvQvlREJcjV-16" value="" style="endArrow=classic;html=1;rounded=0;entryX=0.5;entryY=1;entryDx=0;entryDy=0;exitX=0.5;exitY=0;exitDx=0;exitDy=0;" parent="1" source="xxGwxqvofC45Gv9JoIxF-6" target="xxGwxqvofC45Gv9JoIxF-17" edge="1">
          <mxGeometry width="50" height="50" relative="1" as="geometry">
            <mxPoint x="270" y="140" as="sourcePoint" />
            <mxPoint x="320" y="90" as="targetPoint" />
          </mxGeometry>
        </mxCell>
        <mxCell id="nmP3d7nmnVvQvlREJcjV-17" value="" style="endArrow=classic;html=1;rounded=0;entryX=0.5;entryY=1;entryDx=0;entryDy=0;exitX=0.5;exitY=0;exitDx=0;exitDy=0;" parent="1" source="xxGwxqvofC45Gv9JoIxF-31" target="xxGwxqvofC45Gv9JoIxF-33" edge="1">
          <mxGeometry width="50" height="50" relative="1" as="geometry">
            <mxPoint x="270" y="140" as="sourcePoint" />
            <mxPoint x="320" y="90" as="targetPoint" />
          </mxGeometry>
        </mxCell>
        <mxCell id="nmP3d7nmnVvQvlREJcjV-18" value="" style="endArrow=classic;html=1;rounded=0;entryX=0.5;entryY=1;entryDx=0;entryDy=0;exitX=0.5;exitY=0;exitDx=0;exitDy=0;" parent="1" source="xxGwxqvofC45Gv9JoIxF-10" target="xxGwxqvofC45Gv9JoIxF-16" edge="1">
          <mxGeometry width="50" height="50" relative="1" as="geometry">
            <mxPoint x="70" y="140" as="sourcePoint" />
            <mxPoint x="120" y="90" as="targetPoint" />
          </mxGeometry>
        </mxCell>
        <mxCell id="nmP3d7nmnVvQvlREJcjV-19" value="" style="endArrow=classic;html=1;rounded=0;entryX=0.5;entryY=1;entryDx=0;entryDy=0;exitX=0.5;exitY=0;exitDx=0;exitDy=0;" parent="1" source="xxGwxqvofC45Gv9JoIxF-39" target="xxGwxqvofC45Gv9JoIxF-41" edge="1">
          <mxGeometry width="50" height="50" relative="1" as="geometry">
            <mxPoint x="-40" y="140" as="sourcePoint" />
            <mxPoint x="10" y="90" as="targetPoint" />
          </mxGeometry>
        </mxCell>
        <mxCell id="nmP3d7nmnVvQvlREJcjV-20" value="" style="endArrow=classic;html=1;rounded=0;entryX=0.5;entryY=1;entryDx=0;entryDy=0;exitX=0.5;exitY=0;exitDx=0;exitDy=0;" parent="1" source="xxGwxqvofC45Gv9JoIxF-35" target="xxGwxqvofC45Gv9JoIxF-36" edge="1">
          <mxGeometry width="50" height="50" relative="1" as="geometry">
            <mxPoint x="-40" y="140" as="sourcePoint" />
            <mxPoint x="10" y="90" as="targetPoint" />
          </mxGeometry>
        </mxCell>
        <mxCell id="nmP3d7nmnVvQvlREJcjV-21" value="" style="endArrow=classic;html=1;rounded=0;entryX=0.5;entryY=1;entryDx=0;entryDy=0;exitX=0.5;exitY=0;exitDx=0;exitDy=0;" parent="1" source="xxGwxqvofC45Gv9JoIxF-23" target="xxGwxqvofC45Gv9JoIxF-26" edge="1">
          <mxGeometry width="50" height="50" relative="1" as="geometry">
            <mxPoint x="-40" y="140" as="sourcePoint" />
            <mxPoint x="10" y="90" as="targetPoint" />
          </mxGeometry>
        </mxCell>
        <mxCell id="nmP3d7nmnVvQvlREJcjV-22" value="" style="endArrow=classic;html=1;rounded=0;entryX=0.5;entryY=1;entryDx=0;entryDy=0;exitX=0;exitY=0;exitDx=0;exitDy=0;" parent="1" source="YrKr4Qs9mhoKFXOp8PhC-3" target="YrKr4Qs9mhoKFXOp8PhC-7" edge="1">
          <mxGeometry width="50" height="50" relative="1" as="geometry">
            <mxPoint x="480" y="140" as="sourcePoint" />
            <mxPoint x="530" y="90" as="targetPoint" />
          </mxGeometry>
        </mxCell>
        <mxCell id="nmP3d7nmnVvQvlREJcjV-23" value="" style="endArrow=classic;html=1;rounded=0;entryX=0.5;entryY=1;entryDx=0;entryDy=0;exitX=1;exitY=0;exitDx=0;exitDy=0;" parent="1" source="YrKr4Qs9mhoKFXOp8PhC-3" target="YrKr4Qs9mhoKFXOp8PhC-6" edge="1">
          <mxGeometry width="50" height="50" relative="1" as="geometry">
            <mxPoint x="480" y="140" as="sourcePoint" />
            <mxPoint x="530" y="90" as="targetPoint" />
          </mxGeometry>
        </mxCell>
        <mxCell id="nmP3d7nmnVvQvlREJcjV-24" value="" style="endArrow=classic;html=1;rounded=0;entryX=0.5;entryY=1;entryDx=0;entryDy=0;" parent="1" target="YrKr4Qs9mhoKFXOp8PhC-10" edge="1">
          <mxGeometry width="50" height="50" relative="1" as="geometry">
            <mxPoint x="480" y="-40" as="sourcePoint" />
            <mxPoint x="530" y="-10" as="targetPoint" />
          </mxGeometry>
        </mxCell>
        <mxCell id="nmP3d7nmnVvQvlREJcjV-25" value="" style="endArrow=classic;html=1;rounded=0;entryX=0.5;entryY=1;entryDx=0;entryDy=0;exitX=0.5;exitY=0;exitDx=0;exitDy=0;" parent="1" source="YrKr4Qs9mhoKFXOp8PhC-6" target="YrKr4Qs9mhoKFXOp8PhC-11" edge="1">
          <mxGeometry width="50" height="50" relative="1" as="geometry">
            <mxPoint x="480" y="40" as="sourcePoint" />
            <mxPoint x="530" y="-10" as="targetPoint" />
          </mxGeometry>
        </mxCell>
        <mxCell id="nmP3d7nmnVvQvlREJcjV-26" value="" style="endArrow=classic;html=1;rounded=0;entryX=0.5;entryY=1;entryDx=0;entryDy=0;exitX=0.5;exitY=0;exitDx=0;exitDy=0;" parent="1" source="YrKr4Qs9mhoKFXOp8PhC-1" target="YrKr4Qs9mhoKFXOp8PhC-3" edge="1">
          <mxGeometry width="50" height="50" relative="1" as="geometry">
            <mxPoint x="480" y="140" as="sourcePoint" />
            <mxPoint x="530" y="90" as="targetPoint" />
          </mxGeometry>
        </mxCell>
        <mxCell id="nmP3d7nmnVvQvlREJcjV-28" value="" style="endArrow=classic;html=1;rounded=0;entryX=0.5;entryY=1;entryDx=0;entryDy=0;exitX=0.5;exitY=0;exitDx=0;exitDy=0;" parent="1" source="xxGwxqvofC45Gv9JoIxF-48" target="xxGwxqvofC45Gv9JoIxF-53" edge="1">
          <mxGeometry width="50" height="50" relative="1" as="geometry">
            <mxPoint x="780" y="140" as="sourcePoint" />
            <mxPoint x="830" y="90" as="targetPoint" />
          </mxGeometry>
        </mxCell>
        <mxCell id="nmP3d7nmnVvQvlREJcjV-29" value="" style="endArrow=classic;html=1;rounded=0;entryX=0.5;entryY=1;entryDx=0;entryDy=0;exitX=0.5;exitY=0;exitDx=0;exitDy=0;" parent="1" source="xxGwxqvofC45Gv9JoIxF-49" target="xxGwxqvofC45Gv9JoIxF-52" edge="1">
          <mxGeometry width="50" height="50" relative="1" as="geometry">
            <mxPoint x="780" y="40" as="sourcePoint" />
            <mxPoint x="830" y="-10" as="targetPoint" />
          </mxGeometry>
        </mxCell>
        <mxCell id="nmP3d7nmnVvQvlREJcjV-30" value="" style="endArrow=classic;html=1;rounded=0;entryX=0.5;entryY=1;entryDx=0;entryDy=0;exitX=0.5;exitY=0;exitDx=0;exitDy=0;" parent="1" source="xxGwxqvofC45Gv9JoIxF-75" target="xxGwxqvofC45Gv9JoIxF-79" edge="1">
          <mxGeometry width="50" height="50" relative="1" as="geometry">
            <mxPoint x="780" y="40" as="sourcePoint" />
            <mxPoint x="830" y="-10" as="targetPoint" />
          </mxGeometry>
        </mxCell>
        <mxCell id="nmP3d7nmnVvQvlREJcjV-31" value="" style="endArrow=classic;html=1;rounded=0;entryX=0.5;entryY=1;entryDx=0;entryDy=0;exitX=0.5;exitY=0;exitDx=0;exitDy=0;" parent="1" source="xxGwxqvofC45Gv9JoIxF-77" target="xxGwxqvofC45Gv9JoIxF-80" edge="1">
          <mxGeometry width="50" height="50" relative="1" as="geometry">
            <mxPoint x="780" y="40" as="sourcePoint" />
            <mxPoint x="830" y="-10" as="targetPoint" />
          </mxGeometry>
        </mxCell>
        <mxCell id="nmP3d7nmnVvQvlREJcjV-32" value="" style="endArrow=classic;html=1;rounded=0;entryX=0.5;entryY=1;entryDx=0;entryDy=0;exitX=0;exitY=0;exitDx=0;exitDy=0;" parent="1" source="xxGwxqvofC45Gv9JoIxF-20" target="xxGwxqvofC45Gv9JoIxF-48" edge="1">
          <mxGeometry width="50" height="50" relative="1" as="geometry">
            <mxPoint x="860" y="140" as="sourcePoint" />
            <mxPoint x="910" y="90" as="targetPoint" />
          </mxGeometry>
        </mxCell>
        <mxCell id="nmP3d7nmnVvQvlREJcjV-33" value="" style="endArrow=classic;html=1;rounded=0;entryX=0.5;entryY=1;entryDx=0;entryDy=0;exitX=1;exitY=0;exitDx=0;exitDy=0;" parent="1" source="xxGwxqvofC45Gv9JoIxF-20" target="xxGwxqvofC45Gv9JoIxF-49" edge="1">
          <mxGeometry width="50" height="50" relative="1" as="geometry">
            <mxPoint x="860" y="140" as="sourcePoint" />
            <mxPoint x="910" y="90" as="targetPoint" />
          </mxGeometry>
        </mxCell>
        <mxCell id="nmP3d7nmnVvQvlREJcjV-34" value="" style="endArrow=classic;html=1;rounded=0;entryX=0.5;entryY=1;entryDx=0;entryDy=0;exitX=0;exitY=0;exitDx=0;exitDy=0;" parent="1" source="xxGwxqvofC45Gv9JoIxF-58" target="xxGwxqvofC45Gv9JoIxF-75" edge="1">
          <mxGeometry width="50" height="50" relative="1" as="geometry">
            <mxPoint x="860" y="140" as="sourcePoint" />
            <mxPoint x="910" y="90" as="targetPoint" />
          </mxGeometry>
        </mxCell>
        <mxCell id="nmP3d7nmnVvQvlREJcjV-35" value="" style="endArrow=classic;html=1;rounded=0;entryX=0.5;entryY=1;entryDx=0;entryDy=0;exitX=1;exitY=0;exitDx=0;exitDy=0;" parent="1" source="xxGwxqvofC45Gv9JoIxF-58" target="xxGwxqvofC45Gv9JoIxF-77" edge="1">
          <mxGeometry width="50" height="50" relative="1" as="geometry">
            <mxPoint x="860" y="140" as="sourcePoint" />
            <mxPoint x="910" y="90" as="targetPoint" />
          </mxGeometry>
        </mxCell>
        <mxCell id="nmP3d7nmnVvQvlREJcjV-36" value="" style="endArrow=classic;html=1;rounded=0;entryX=0.5;entryY=0;entryDx=0;entryDy=0;exitX=0.5;exitY=1;exitDx=0;exitDy=0;" parent="1" source="xxGwxqvofC45Gv9JoIxF-20" target="xxGwxqvofC45Gv9JoIxF-46" edge="1">
          <mxGeometry width="50" height="50" relative="1" as="geometry">
            <mxPoint x="740" y="140" as="sourcePoint" />
            <mxPoint x="790" y="90" as="targetPoint" />
          </mxGeometry>
        </mxCell>
        <mxCell id="nmP3d7nmnVvQvlREJcjV-37" value="" style="endArrow=classic;html=1;rounded=0;entryX=0.5;entryY=0;entryDx=0;entryDy=0;exitX=0.5;exitY=1;exitDx=0;exitDy=0;" parent="1" source="YrKr4Qs9mhoKFXOp8PhC-1" target="YrKr4Qs9mhoKFXOp8PhC-22" edge="1">
          <mxGeometry width="50" height="50" relative="1" as="geometry">
            <mxPoint x="740" y="140" as="sourcePoint" />
            <mxPoint x="790" y="90" as="targetPoint" />
          </mxGeometry>
        </mxCell>
        <mxCell id="nmP3d7nmnVvQvlREJcjV-42" value="" style="endArrow=classic;html=1;rounded=0;exitX=0.5;exitY=1;exitDx=0;exitDy=0;entryX=0.5;entryY=0;entryDx=0;entryDy=0;" parent="1" source="xxGwxqvofC45Gv9JoIxF-21" target="xxGwxqvofC45Gv9JoIxF-28" edge="1">
          <mxGeometry width="50" height="50" relative="1" as="geometry">
            <mxPoint x="-120" y="270" as="sourcePoint" />
            <mxPoint x="-70" y="220" as="targetPoint" />
          </mxGeometry>
        </mxCell>
        <mxCell id="nmP3d7nmnVvQvlREJcjV-43" value="" style="edgeStyle=elbowEdgeStyle;elbow=vertical;endArrow=classic;html=1;curved=0;rounded=0;endSize=8;startSize=8;exitX=1;exitY=0.5;exitDx=0;exitDy=0;entryX=0;entryY=0.5;entryDx=0;entryDy=0;dashed=1;" parent="1" source="xxGwxqvofC45Gv9JoIxF-1" target="YrKr4Qs9mhoKFXOp8PhC-22" edge="1">
          <mxGeometry width="50" height="50" relative="1" as="geometry">
            <mxPoint x="440" y="340" as="sourcePoint" />
            <mxPoint x="490" y="290" as="targetPoint" />
            <Array as="points">
              <mxPoint x="380" y="300" />
            </Array>
          </mxGeometry>
        </mxCell>
        <mxCell id="nmP3d7nmnVvQvlREJcjV-45" value="" style="edgeStyle=elbowEdgeStyle;elbow=vertical;endArrow=classic;html=1;curved=0;rounded=0;endSize=8;startSize=8;exitX=1;exitY=0.5;exitDx=0;exitDy=0;entryX=0;entryY=1;entryDx=0;entryDy=0;dashed=1;" parent="1" source="xxGwxqvofC45Gv9JoIxF-28" target="YrKr4Qs9mhoKFXOp8PhC-22" edge="1">
          <mxGeometry width="50" height="50" relative="1" as="geometry">
            <mxPoint x="250" y="310" as="sourcePoint" />
            <mxPoint x="520" y="240" as="targetPoint" />
            <Array as="points">
              <mxPoint x="150" y="380" />
            </Array>
          </mxGeometry>
        </mxCell>
        <mxCell id="nmP3d7nmnVvQvlREJcjV-46" value="" style="endArrow=classic;html=1;rounded=0;entryX=0.5;entryY=0;entryDx=0;entryDy=0;exitX=0.5;exitY=1;exitDx=0;exitDy=0;" parent="1" source="xxGwxqvofC45Gv9JoIxF-3" target="xxGwxqvofC45Gv9JoIxF-1" edge="1">
          <mxGeometry width="50" height="50" relative="1" as="geometry">
            <mxPoint x="140" y="270" as="sourcePoint" />
            <mxPoint x="190" y="220" as="targetPoint" />
          </mxGeometry>
        </mxCell>
        <mxCell id="nmP3d7nmnVvQvlREJcjV-51" value="" style="edgeStyle=elbowEdgeStyle;elbow=vertical;endArrow=classic;html=1;curved=0;rounded=0;endSize=8;startSize=8;exitX=0;exitY=0.5;exitDx=0;exitDy=0;entryX=1;entryY=0.5;entryDx=0;entryDy=0;dashed=1;" parent="1" source="xxGwxqvofC45Gv9JoIxF-43" target="YrKr4Qs9mhoKFXOp8PhC-22" edge="1">
          <mxGeometry width="50" height="50" relative="1" as="geometry">
            <mxPoint x="610" y="495" as="sourcePoint" />
            <mxPoint x="560" y="250" as="targetPoint" />
            <Array as="points">
              <mxPoint x="630" y="300" />
            </Array>
          </mxGeometry>
        </mxCell>
        <mxCell id="nmP3d7nmnVvQvlREJcjV-52" value="" style="edgeStyle=elbowEdgeStyle;elbow=vertical;endArrow=classic;html=1;curved=0;rounded=0;endSize=8;startSize=8;exitX=0;exitY=0.5;exitDx=0;exitDy=0;entryX=1;entryY=1;entryDx=0;entryDy=0;dashed=1;" parent="1" source="xxGwxqvofC45Gv9JoIxF-63" target="xxGwxqvofC45Gv9JoIxF-46" edge="1">
          <mxGeometry width="50" height="50" relative="1" as="geometry">
            <mxPoint x="940" y="240" as="sourcePoint" />
            <mxPoint x="920" y="160" as="targetPoint" />
            <Array as="points">
              <mxPoint x="820" y="300" />
            </Array>
          </mxGeometry>
        </mxCell>
        <mxCell id="nmP3d7nmnVvQvlREJcjV-53" value="" style="edgeStyle=elbowEdgeStyle;elbow=vertical;endArrow=classic;html=1;curved=0;rounded=0;endSize=8;startSize=8;exitX=0;exitY=0.5;exitDx=0;exitDy=0;entryX=0.5;entryY=1;entryDx=0;entryDy=0;dashed=1;" parent="1" source="xxGwxqvofC45Gv9JoIxF-64" target="xxGwxqvofC45Gv9JoIxF-46" edge="1">
          <mxGeometry width="50" height="50" relative="1" as="geometry">
            <mxPoint x="850" y="310" as="sourcePoint" />
            <mxPoint x="820" y="240" as="targetPoint" />
            <Array as="points">
              <mxPoint x="810" y="380" />
            </Array>
          </mxGeometry>
        </mxCell>
        <mxCell id="nmP3d7nmnVvQvlREJcjV-54" value="" style="edgeStyle=elbowEdgeStyle;elbow=horizontal;endArrow=classic;html=1;curved=0;rounded=0;endSize=8;startSize=8;exitX=0;exitY=0.5;exitDx=0;exitDy=0;" parent="1" source="xxGwxqvofC45Gv9JoIxF-58" target="xxGwxqvofC45Gv9JoIxF-63" edge="1">
          <mxGeometry width="50" height="50" relative="1" as="geometry">
            <mxPoint x="890" y="310" as="sourcePoint" />
            <mxPoint x="940" y="260" as="targetPoint" />
            <Array as="points">
              <mxPoint x="980" y="220" />
            </Array>
          </mxGeometry>
        </mxCell>
        <mxCell id="nmP3d7nmnVvQvlREJcjV-55" value="" style="edgeStyle=elbowEdgeStyle;elbow=horizontal;endArrow=classic;html=1;curved=0;rounded=0;endSize=8;startSize=8;exitX=0;exitY=1;exitDx=0;exitDy=0;entryX=1;entryY=0.5;entryDx=0;entryDy=0;" parent="1" source="xxGwxqvofC45Gv9JoIxF-58" target="xxGwxqvofC45Gv9JoIxF-64" edge="1">
          <mxGeometry width="50" height="50" relative="1" as="geometry">
            <mxPoint x="990" y="150" as="sourcePoint" />
            <mxPoint x="970" y="310" as="targetPoint" />
            <Array as="points">
              <mxPoint x="990" y="230" />
            </Array>
          </mxGeometry>
        </mxCell>
        <mxCell id="nmP3d7nmnVvQvlREJcjV-56" value="" style="edgeStyle=elbowEdgeStyle;elbow=horizontal;endArrow=classic;html=1;curved=0;rounded=0;endSize=8;startSize=8;exitX=0.5;exitY=1;exitDx=0;exitDy=0;" parent="1" source="xxGwxqvofC45Gv9JoIxF-58" target="xxGwxqvofC45Gv9JoIxF-60" edge="1">
          <mxGeometry width="50" height="50" relative="1" as="geometry">
            <mxPoint x="1002" y="164" as="sourcePoint" />
            <mxPoint x="970" y="390" as="targetPoint" />
            <Array as="points">
              <mxPoint x="1020" y="320" />
            </Array>
          </mxGeometry>
        </mxCell>
        <mxCell id="nmP3d7nmnVvQvlREJcjV-58" value="" style="edgeStyle=elbowEdgeStyle;elbow=horizontal;endArrow=classic;html=1;curved=0;rounded=0;endSize=8;startSize=8;exitX=1;exitY=1;exitDx=0;exitDy=0;entryX=1;entryY=0.5;entryDx=0;entryDy=0;" parent="1" source="xxGwxqvofC45Gv9JoIxF-58" target="xxGwxqvofC45Gv9JoIxF-59" edge="1">
          <mxGeometry width="50" height="50" relative="1" as="geometry">
            <mxPoint x="1030" y="170" as="sourcePoint" />
            <mxPoint x="750" y="470" as="targetPoint" />
            <Array as="points">
              <mxPoint x="1048" y="350" />
            </Array>
          </mxGeometry>
        </mxCell>
        <mxCell id="nmP3d7nmnVvQvlREJcjV-59" value="" style="edgeStyle=elbowEdgeStyle;elbow=vertical;endArrow=classic;html=1;curved=0;rounded=0;endSize=8;startSize=8;exitX=0;exitY=0.5;exitDx=0;exitDy=0;entryX=1;entryY=1;entryDx=0;entryDy=0;dashed=1;" parent="1" source="xxGwxqvofC45Gv9JoIxF-60" target="YrKr4Qs9mhoKFXOp8PhC-22" edge="1">
          <mxGeometry width="50" height="50" relative="1" as="geometry">
            <mxPoint x="630" y="310" as="sourcePoint" />
            <mxPoint x="610" y="230" as="targetPoint" />
            <Array as="points">
              <mxPoint x="590" y="460" />
            </Array>
          </mxGeometry>
        </mxCell>
        <mxCell id="nmP3d7nmnVvQvlREJcjV-60" value="" style="edgeStyle=elbowEdgeStyle;elbow=vertical;endArrow=classic;html=1;curved=0;rounded=0;endSize=8;startSize=8;exitX=0;exitY=0.5;exitDx=0;exitDy=0;entryX=0.5;entryY=1;entryDx=0;entryDy=0;dashed=1;" parent="1" source="xxGwxqvofC45Gv9JoIxF-59" target="YrKr4Qs9mhoKFXOp8PhC-22" edge="1">
          <mxGeometry width="50" height="50" relative="1" as="geometry">
            <mxPoint x="630" y="470" as="sourcePoint" />
            <mxPoint x="580" y="240" as="targetPoint" />
            <Array as="points">
              <mxPoint x="570" y="540" />
            </Array>
          </mxGeometry>
        </mxCell>
        <mxCell id="nmP3d7nmnVvQvlREJcjV-63" value="" style="edgeStyle=elbowEdgeStyle;elbow=vertical;endArrow=classic;html=1;curved=0;rounded=0;endSize=8;startSize=8;exitX=0;exitY=0.5;exitDx=0;exitDy=0;entryX=0.5;entryY=0;entryDx=0;entryDy=0;" parent="1" source="xxGwxqvofC45Gv9JoIxF-20" target="xxGwxqvofC45Gv9JoIxF-43" edge="1">
          <mxGeometry width="50" height="50" relative="1" as="geometry">
            <mxPoint x="810" y="310" as="sourcePoint" />
            <mxPoint x="860" y="260" as="targetPoint" />
            <Array as="points">
              <mxPoint x="700" y="140" />
            </Array>
          </mxGeometry>
        </mxCell>
        <mxCell id="nmP3d7nmnVvQvlREJcjV-64" value="" style="edgeStyle=elbowEdgeStyle;elbow=horizontal;endArrow=classic;html=1;curved=0;rounded=0;endSize=8;startSize=8;exitX=1;exitY=0.5;exitDx=0;exitDy=0;entryX=0;entryY=0.5;entryDx=0;entryDy=0;" parent="1" source="xxGwxqvofC45Gv9JoIxF-58" target="xxGwxqvofC45Gv9JoIxF-73" edge="1">
          <mxGeometry width="50" height="50" relative="1" as="geometry">
            <mxPoint x="990" y="150" as="sourcePoint" />
            <mxPoint x="950" y="310" as="targetPoint" />
            <Array as="points">
              <mxPoint x="1060" y="190" />
            </Array>
          </mxGeometry>
        </mxCell>
        <mxCell id="nmP3d7nmnVvQvlREJcjV-65" value="" style="edgeStyle=segmentEdgeStyle;endArrow=classic;html=1;curved=0;rounded=0;endSize=8;startSize=8;exitX=1;exitY=1;exitDx=0;exitDy=0;entryX=0.5;entryY=0;entryDx=0;entryDy=0;" parent="1" source="xxGwxqvofC45Gv9JoIxF-3" target="xxGwxqvofC45Gv9JoIxF-7" edge="1">
          <mxGeometry width="50" height="50" relative="1" as="geometry">
            <mxPoint x="420" y="310" as="sourcePoint" />
            <mxPoint x="470" y="260" as="targetPoint" />
          </mxGeometry>
        </mxCell>
        <mxCell id="nmP3d7nmnVvQvlREJcjV-66" value="" style="edgeStyle=segmentEdgeStyle;endArrow=classic;html=1;curved=0;rounded=0;endSize=8;startSize=8;exitX=1;exitY=1;exitDx=0;exitDy=0;entryX=0.5;entryY=0;entryDx=0;entryDy=0;" parent="1" source="xxGwxqvofC45Gv9JoIxF-21" target="xxGwxqvofC45Gv9JoIxF-22" edge="1">
          <mxGeometry width="50" height="50" relative="1" as="geometry">
            <mxPoint x="218" y="164" as="sourcePoint" />
            <mxPoint x="310" y="210" as="targetPoint" />
          </mxGeometry>
        </mxCell>
      </root>
    </mxGraphModel>
  </diagram>
</mxfile>
